<?xml version="1.0" encoding="UTF-8" standalone="no"?>
<svg width="40px" height="40px" viewBox="0 0 40 40" version="1.1" xmlns="http://www.w3.org/2000/svg" xmlns:xlink="http://www.w3.org/1999/xlink">
    <defs></defs>
    <g id="Page-1" stroke="none" stroke-width="1" fill="none" fill-rule="evenodd">
        <g id="Glyphs-instead-of-Font-Awesome-2" fill="#FFFFFF">
            <g id="Y" transform="translate(10.000000, 6.000000)">
                <rect id="Rectangle-9" x="2" y="6" width="1" height="16"></rect>
                <rect id="Rectangle-13" transform="translate(3.500000, 7.500000) rotate(-45.000000) translate(-3.500000, -7.500000) " x="3" y="6" width="1" height="3"></rect>
                <rect id="Rectangle-14" transform="translate(1.500000, 7.500000) scale(-1, 1) rotate(-45.000000) translate(-1.500000, -7.500000) " x="1" y="6" width="1" height="3"></rect>
                <path d="M2.5,19.3786797 L2.79289322,19.0857864 L4.91421356,21.2071068 L4.20710678,21.9142136 L2.5,20.2071068 L0.792893219,21.9142136 L0.0857864376,21.2071068 L2.20710678,19.0857864 L2.5,19.3786797 Z" id="Rectangle-18" transform="translate(2.500000, 20.500000) rotate(-180.000000) translate(-2.500000, -20.500000) "></path>
                <path d="M21.6879883,7.75737251 L21.6879883,8.20903267 L21.3706055,8.15208212 C21.1590159,8.1141149 20.8497742,8.15221148 20.4428711,8.26637301 C20.035968,8.38053453 19.6656918,8.5826449 19.3320312,8.87271015 C18.9983707,9.16277541 18.5874048,9.65868825 18.0991211,10.3604636 L14.1074219,15.930822 L14.1074219,20.0812126 C14.1074219,21.0984703 14.221353,21.7536732 14.4492188,22.0468408 C14.7584651,22.44413 15.2467415,22.7026421 15.9140625,22.8223848 L16.4511719,22.9187627 L16.4511719,23.3704228 L9.41992187,22.1087492 L9.41992187,21.657089 L10.0058594,21.7622285 C10.7057327,21.8878124 11.202147,21.7653016 11.4951172,21.3946924 C11.6741545,21.1664005 11.7636719,20.5883937 11.7636719,19.6606547 L11.7636719,15.7421977 L7.22265625,7.99377303 C6.68554419,7.08358854 6.3213714,6.50962088 6.13012695,6.27185281 C5.93888251,6.03408474 5.54215796,5.71875909 4.93994141,5.32586638 C4.77718018,5.21528021 4.54117993,5.13224309 4.23193359,5.07675254 L4.23193359,4.62509238 L11.3120117,5.89552768 L11.3120117,6.34718784 L10.9458008,6.28147567 C10.5633119,6.21284261 10.211346,6.23920388 9.88989258,6.36056026 C9.56843915,6.48191664 9.40771484,6.72162859 9.40771484,7.0797033 C9.40771484,7.37267351 9.655922,7.94617738 10.1523438,8.80023211 L13.6069336,14.7545896 L16.8540039,10.2346984 C17.3422876,9.55733731 17.5864258,9.03148922 17.5864258,8.65713839 C17.5864258,8.42927267 17.5274257,8.21523733 17.4094238,8.01502594 C17.2914219,7.81481456 17.1225597,7.6441348 16.902832,7.50298153 C16.6831044,7.36182826 16.3535178,7.25182578 15.9140625,7.17297078 L15.9140625,6.72131062 L21.6879883,7.75737251 Z" id="Y-2"></path>
            </g>
        </g>
    </g>
</svg>