<?xml version="1.0" encoding="UTF-8" standalone="no"?>
<svg width="400px" height="400px" viewBox="0 0 400 400" version="1.1" xmlns="http://www.w3.org/2000/svg" xmlns:xlink="http://www.w3.org/1999/xlink">
    <defs></defs>
    <g id="Page-1" stroke="none" stroke-width="1" fill="none" fill-rule="evenodd">
        <g id="Logo">
            <path d="M208.252071,281.667043 C206.192888,287.493005 200.636693,291.667043 194.105599,291.667043 C187.574505,291.667043 182.01831,287.493005 179.959128,281.667043 L208.252071,281.667043 Z" id="Oval-14" fill="#54606E"></path>
            <path d="M172.754453,240.886669 C163.825625,234.544361 158,224.118983 158,212.332957 C158,193.002991 173.670034,177.332957 193,177.332957 C212.329966,177.332957 228,193.002991 228,212.332957 C228,223.247068 223.004437,232.994402 215.175125,239.413146 L215.175128,239.413143 C211.50866,242.843498 207.410515,247.636511 207.410515,262.85812 C207.410515,262.85812 205.343172,262.85812 202.370676,262.85812 C202.370677,262.858123 179.03344,262.858121 179.033439,262.85812 C179.03344,249.675317 175.959597,244.314558 172.754453,240.886669 Z" id="Oval-7" fill="#21B9B0"></path>
            <rect id="Rectangle-22" fill="#54606E" x="176.25" y="265.090082" width="35.5" height="14.3999996" rx="3"></rect>
            <path d="M246.08252,133.841089 L246.092774,133.823295 C229.601463,125.00179 210.759847,120 190.75,120 C125.856542,120 73.25,172.606542 73.25,237.5 C73.25,302.393458 125.856542,355 190.75,355 C255.643458,355 308.25,302.393458 308.25,237.5 C308.25,234.516179 308.13878,231.558334 307.920259,228.630386 L307.920259,228.630386 L279.831529,228.789311 C280.108358,231.655489 280.25,234.561203 280.25,237.5 C280.25,286.929485 240.179485,327 190.75,327 C141.320515,327 101.25,286.929485 101.25,237.5 C101.25,188.070515 141.320515,148 190.75,148 C204.555637,148 217.631198,151.125832 229.307547,156.708363 C231.844369,159.358594 235.362109,161 239.25,161 C246.981986,161 253.25,154.508129 253.25,146.5 C253.25,141.06166 250.359316,136.322588 246.08252,133.841089 L246.08252,133.841089 Z M307.918133,228.626259 C307.918133,220.61813 301.758129,214 293.75,214 C285.741871,214 279.811441,220.760674 279.811441,228.768803 C279.811441,228.768803 307.918133,228.626259 307.918133,228.626259 Z" id="Oval-8" fill="#54606E" transform="translate(190.750000, 237.500000) rotate(33.000000) translate(-190.750000, -237.500000) "></path>
            <path d="M323.25,225 L323.25,209.506871 C323.25,203.141746 318.101275,198 311.75,198 C305.397329,198 300.25,203.151801 300.25,209.506871 L300.25,225 L284.756871,225 C278.391746,225 273.25,230.148725 273.25,236.5 C273.25,242.852671 278.401801,248 284.756871,248 L300.25,248 L300.25,263.493129 C300.25,269.858254 305.398725,275 311.75,275 C318.102671,275 323.25,269.848199 323.25,263.493129 L323.25,248 L338.743129,248 C345.108254,248 350.25,242.851275 350.25,236.5 C350.25,230.147329 345.098199,225 338.743129,225 L323.25,225 Z" id="Rectangle-23" fill="#21B9B0"></path>
            <path d="M279.25,143.24187 L279.25,135.001681 C279.25,85.2888251 238.955627,45 189.25,45 C139.547447,45 99.25,85.2951252 99.25,135.001681 L99.25,145.161374 C107.140575,137.426103 116.013069,130.688776 125.663209,125.153668 C129.30699,92.9908994 156.603042,68 189.75,68 C222.67971,68 249.845804,92.6848998 253.764566,124.545411 C263.01856,129.737139 271.572696,136.028283 279.25,143.24187 Z" id="Rectangle-25" fill="#54606E"></path>
        </g>
    </g>
</svg>