<?xml version="1.0" encoding="UTF-8" standalone="no"?>
<svg width="40px" height="40px" viewBox="0 0 40 40" version="1.1" xmlns="http://www.w3.org/2000/svg" xmlns:xlink="http://www.w3.org/1999/xlink">
    <defs></defs>
    <g id="Page-1" stroke="none" stroke-width="1" fill="none" fill-rule="evenodd">
        <g id="Glyphs-instead-of-Font-Awesome-2" fill="#FFFFFF">
            <g id="X" transform="translate(10.000000, 4.000000)">
                <path d="M9.42637766,32.9020824 L9.42637766,18.3041319 L8.21927087,19.5112387 L7.51216409,18.8041319 L9.63348444,16.6828115 L9.64017664,16.6895037 L9.64017664,16.6895037 C9.72224514,16.6312729 9.82154859,16.5970251 9.92637766,16.5970251 C10.0332035,16.5970251 10.1322048,16.6310842 10.2134485,16.6886339 L10.2134485,16.6886339 L10.2192709,16.6828115 L12.3405912,18.8041319 L11.6334844,19.5112387 L10.4263777,18.3041319 L10.4263777,32.9020824 L10.4263777,32.9020824 L11.6334844,31.6949756 L12.3405912,32.4020824 L10.2192709,34.5234028 L10.20541,34.5095419 C10.1247575,34.564731 10.0281728,34.5970251 9.92637766,34.5970251 C9.82267651,34.5970251 9.72634891,34.5649294 9.64648142,34.5104058 L9.63348444,34.5234028 L7.51216409,32.4020824 L8.21927087,31.6949756 L9.42637766,32.9020824 Z" id="Rectangle-9" transform="translate(9.926378, 25.597025) rotate(90.000000) translate(-9.926378, -25.597025) "></path>
                <path d="M16.7979203,20.9074707 C17.1950284,21.2940286 17.7556306,21.5076495 18.4797437,21.5483398 L18.3874757,22 L11.2829836,22 L11.3752515,21.5483398 C11.8489216,21.5402018 12.2088278,21.4913741 12.4549809,21.4018555 C12.6408427,21.3286129 12.8040811,21.2167162 12.944701,21.0661621 C13.085321,20.915608 13.1714234,20.7630216 13.2030108,20.6083984 C13.2412481,20.421223 13.2428642,20.2340504 13.207859,20.046875 C13.179155,19.908528 13.0285103,19.5504586 12.7559204,18.9726562 L10.8161206,14.7246094 L6.44160665,19.1679687 C5.97896924,19.6399763 5.6948242,19.9553215 5.58916302,20.1140137 C5.48350183,20.2727059 5.41321611,20.4374991 5.37830374,20.6083984 C5.32510394,20.8688164 5.39091069,21.0844718 5.57572598,21.2553711 C5.76054127,21.4262704 6.15969553,21.5239257 6.77320072,21.5483398 L6.68093278,22 L0.809350744,22 L0.901618691,21.5483398 C1.3249723,21.5076495 1.70049756,21.4222012 2.02820574,21.2919922 C2.57599039,21.0804026 3.11431523,20.7955747 3.6431964,20.4375 C4.17207758,20.0794253 4.80512235,19.5301144 5.54234972,18.7895508 L10.456066,13.8579102 L8.17183638,9.08496094 C7.54912419,7.79100916 6.96967718,6.94262897 6.43347795,6.53979492 C5.89727872,6.13696088 5.22884882,5.92333997 4.42816821,5.89892578 L4.52043616,5.44726562 L12.1742448,5.44726562 L12.0819768,5.89892578 C11.4259444,5.92333997 10.9587801,6.02913318 10.68047,6.21630859 C10.4021598,6.40348401 10.2397322,6.61100146 10.1931824,6.83886719 C10.1316701,7.13997546 10.2372073,7.57942419 10.5097972,8.15722656 L12.2733102,11.9536133 L15.9757919,8.23046875 C16.4073651,7.79101343 16.6784284,7.48990967 16.7889899,7.32714844 C16.8995514,7.16438721 16.9722872,6.99755945 17.0071996,6.82666016 C17.0421119,6.65576086 17.02404,6.50520898 16.9529831,6.375 C16.8658246,6.20410071 16.7357251,6.0840661 16.5626809,6.01489258 C16.3896367,5.94571906 16.0109813,5.90706384 15.4267034,5.89892578 L15.5189713,5.44726562 L21.3905533,5.44726562 L21.2982854,5.89892578 C20.8294284,5.92333997 20.436052,5.99658142 20.1181444,6.11865234 C19.6404517,6.30582776 19.1860872,6.55810388 18.7550371,6.87548828 C18.3239871,7.19287268 17.6875302,7.77880432 16.8456473,8.63330078 L12.7041134,12.8325195 L15.1740814,18.1303711 C15.8595379,19.5952222 16.4008121,20.5209128 16.7979203,20.9074707 Z" id="X-2"></path>
            </g>
        </g>
    </g>
</svg>