<?xml version="1.0" encoding="UTF-8" standalone="no"?>
<svg width="40px" height="40px" viewBox="0 0 40 40" version="1.1" xmlns="http://www.w3.org/2000/svg" xmlns:xlink="http://www.w3.org/1999/xlink">
    <defs></defs>
    <g id="Page-1" stroke="none" stroke-width="1" fill="none" fill-rule="evenodd">
        <g id="Artboard" transform="translate(-20.000000, -20.000000)"></g>
        <g id="Artboard">
            <path d="M12.1711298,10.5804175 L10.7552119,10.5804175 L10.5333349,15.4233896 L11.8580579,15.4233896 L12.1711298,10.5804175 Z M16.9873206,29.4437175 L15.3747022,29.4726133 L15.3747022,28.4961009 C15.3747022,28.4961009 16.3487969,28.4961005 16.3487969,28.4961008 C16.9504375,28.4367915 17.2295673,28.5116265 17.2295673,27.7332334 C17.2295673,26.9548403 17.2295674,25.4574696 17.2295674,25.4574696 L17.2295674,12.0947395 L19.5812537,12.0947395 L19.5812537,28.2273683 L18.8651941,28.8604808 L18.2289703,29.0662589 L16.9873206,29.4437175 Z" id="Path-9" fill="#7B7D78"></path>
            <path d="M12.7980592,10.9884768 C17.3681695,10.9884768 25.7708154,11.0281671 28.4152272,10.9884768 C28.9367373,10.9806494 29.4666646,10.5273867 29.4666646,10.5273867 L29.4666651,15.4029605 L28.8790964,15.4029605 C28.7657053,14.6444398 28.6110835,14.1026474 28.4152263,13.7775671 C28.0956697,13.2538266 27.6704597,12.8677996 27.1395835,12.6194743 C26.6087073,12.3711491 25.9103321,12.2469884 25.044437,12.2469884 L22.0911308,12.2469884 L22.0911308,26.2795511 C22.0911308,27.4083021 22.2302904,28.1126322 22.5086139,28.3925625 C22.9003283,28.7718228 23.5033534,28.9614501 24.3177072,28.9614501 L25.044437,28.9614501 L25.044437,29.4626131 C25.044437,29.4626131 22.1377402,29.2301828 20.6685956,29.2301828 C19.1741258,29.2301828 16.1535937,29.4626131 16.1535937,29.4626131 L16.1535937,28.9614501 L16.8957858,28.9614501 C17.7822975,28.9614501 18.4110929,28.7266734 18.7821908,28.257113 C19.0089729,27.9681527 19.1223622,27.308972 19.1223622,26.2795511 L19.1223622,12.2469884 L16.6020014,12.2469884 C15.6227153,12.2469884 14.9269171,12.3101975 14.5145861,12.4366176 C13.9785557,12.6081877 13.5198443,12.9377781 13.1384381,13.4253986 C12.7570319,13.913019 12.5302533,14.5721997 12.4580954,15.4029605 L11.8705266,15.4029605 L12.1401052,10.5273867 C12.1401052,10.5273867 12.5638488,10.9884768 12.7980592,10.9884768 Z" id="T-4" fill="#FFFFFF"></path>
        </g>
    </g>
</svg>